<svg xmlns="http://www.w3.org/2000/svg" viewBox="0 0 420 420" role="img" aria-labelledby="title desc">
  <title id="title">Sing Wai Football Club remastered crest</title>
  <desc id="desc">A fictional remastered red and gold crest for Sing Wai Football Club, created for the website redesign.</desc>
  <defs>
    <linearGradient id="g" x1="0" y1="0" x2="1" y2="1">
      <stop offset="0" stop-color="#b91c1c"/>
      <stop offset="1" stop-color="#64111c"/>
    </linearGradient>
    <filter id="shadow" x="-20%" y="-20%" width="140%" height="140%">
      <feDropShadow dx="0" dy="12" stdDeviation="13" flood-opacity="0.25"/>
    </filter>
  </defs>
  <rect width="420" height="420" rx="70" fill="#fff1f2"/>
  <circle cx="210" cy="210" r="170" fill="url(#g)" filter="url(#shadow)"/>
  <circle cx="210" cy="210" r="143" fill="#fff7ed" stroke="#f59e0b" stroke-width="10"/>
  <path d="M100 122c31-34 69-51 111-51s79 17 110 51l-23 36c-29-21-58-32-87-32s-58 11-88 32z" fill="#64111c"/>
  <path d="M108 272c27 46 61 70 102 70s76-24 102-70l-44-30c-15 25-34 38-58 38s-43-13-59-38z" fill="#64111c"/>
  <circle cx="210" cy="210" r="62" fill="#ffffff" stroke="#64111c" stroke-width="6"/>
  <path d="M210 152l25 18-10 30h-30l-10-30z" fill="#64111c"/>
  <path d="M174 188l21 12-4 30-29 7-18-23zM246 188l30 26-18 23-29-7-4-30zM183 258l27-15 27 15-10 31h-34z" fill="#64111c"/>
  <path d="M185 170l-27-8M235 170l27-8M162 237l-19 20M258 237l19 20M194 289l-7 29M226 289l7 29" stroke="#64111c" stroke-width="5" stroke-linecap="round"/>
  <text x="210" y="96" text-anchor="middle" font-family="Verdana, Arial, sans-serif" font-size="24" font-weight="700" fill="#fff7ed" letter-spacing="2">SING WAI</text>
  <text x="210" y="364" text-anchor="middle" font-family="Verdana, Arial, sans-serif" font-size="22" font-weight="700" fill="#fff7ed" letter-spacing="1.5">FOOTBALL CLUB</text>
  <text x="210" y="132" text-anchor="middle" font-family="'Noto Sans CJK HK', 'Microsoft JhengHei', sans-serif" font-size="24" font-weight="700" fill="#f59e0b">聲威足球會</text>
  <text x="210" y="390" text-anchor="middle" font-family="Verdana, Arial, sans-serif" font-size="14" fill="#64111c">EST. 1997 ARCHIVE REMASTER</text>
</svg>
